<svg width="230" height="102" viewBox="0 0 230 102" fill="none" xmlns="http://www.w3.org/2000/svg">
<rect x="1.5" y="7.5" width="227" height="93" rx="1.5" fill="#FEFDF3" stroke="black" stroke-width="3"/>
<path d="M31.6 40.48C31.52 38.08 31.4667 36.4933 31.44 35.72C32.5333 36.4667 33.7733 37.44 35.16 38.64C36.52 39.84 37.3733 40.6667 37.72 41.12C38.2 41.7067 38.64 42 39.04 42C39.1467 42 39.32 41.96 39.56 41.88C40.2 41.6667 40.52 41.2667 40.52 40.68C40.52 39.8533 39.8667 38.8 38.56 37.52C37.2 36.24 35.7067 35.08 34.08 34.04C34.2933 34.0133 34.9467 33.6933 36.04 33.08C37.1333 32.4667 37.9467 31.9733 38.48 31.6C39.0933 31.1467 39.64 30.56 40.12 29.84C40.6267 29.12 40.88 28.48 40.88 27.92C40.88 26.6933 40.2267 25.6667 38.92 24.84C37.6133 23.9867 36.1067 23.56 34.4 23.56C32.6667 23.56 31.2933 23.8 30.28 24.28C29.2667 24.76 28.76 25.4267 28.76 26.28C28.76 35.1333 28.8133 40.1067 28.92 41.2C28.92 41.7333 29.2133 42 29.8 42C30.2533 42 30.6667 41.8533 31.04 41.56C31.4133 41.2667 31.6 40.92 31.6 40.52V40.48ZM31.44 32.16C31.44 29.3333 31.4533 27.4933 31.48 26.64C32.44 26.4 33.4267 26.28 34.44 26.28C35.4 26.28 36.2533 26.48 37 26.88C37.7733 27.2533 38.16 27.7733 38.16 28.44C38.08 29.1867 37.16 30 35.4 30.88C33.6133 31.7333 32.2933 32.16 31.44 32.16ZM50.6556 33.04C51.2423 33.04 51.6823 33.04 51.9756 33.04C52.269 33.0133 52.4823 33 52.6156 33C52.9356 32.9467 53.229 32.7733 53.4956 32.48C53.7623 32.1867 53.8956 31.88 53.8956 31.56C53.8956 30.92 53.4823 30.5467 52.6556 30.44C49.269 30.44 47.229 30.4267 46.5356 30.4C46.509 30.2133 46.4956 28.8667 46.4956 26.36C47.509 26.44 48.4956 26.48 49.4556 26.48C52.0956 26.48 53.7623 26.2933 54.4556 25.92C54.7756 25.7067 54.9356 25.3467 54.9356 24.84C54.9356 24.1733 54.509 23.7733 53.6556 23.64H53.6156L46.6156 23.52H45.4956C44.2956 23.5467 43.6956 24.0533 43.6956 25.04C43.6956 26.7467 43.7356 28.64 43.8156 30.72C43.5223 31.0133 43.3756 31.3333 43.3756 31.68C43.3756 32.08 43.549 32.3733 43.8956 32.56V39.2C43.8956 40.0533 43.9756 40.7333 44.1356 41.24C44.2956 41.7467 44.709 42 45.3756 42L53.2156 41.92C54.2556 41.92 54.7756 41.36 54.7756 40.24C54.7756 39.6533 54.389 39.32 53.6156 39.24L46.6956 39.36C46.7223 39.3333 46.7356 38.96 46.7356 38.24L46.6556 33L50.6556 33.04ZM69.6909 26.04C69.6909 25.2667 69.1976 24.6533 68.2109 24.2C67.2243 23.72 65.8243 23.48 64.0109 23.48C62.1443 23.48 60.5843 23.9333 59.3309 24.84C58.0509 25.72 57.4109 26.7867 57.4109 28.04C57.4109 29.2667 57.7576 30.2267 58.4509 30.92C59.0909 31.56 59.9176 32.0267 60.9309 32.32L62.4109 32.68C63.5309 32.92 64.4109 33.16 65.0509 33.4C65.7176 33.6133 66.2776 33.9333 66.7309 34.36C67.1843 34.7867 67.4109 35.36 67.4109 36.08C67.4109 36.9867 67.0909 37.72 66.4509 38.28C65.8376 38.84 64.9709 39.12 63.8509 39.12C63.1843 39.12 61.6109 38.6267 59.1309 37.64C58.9709 37.5867 58.8509 37.56 58.7709 37.56C58.4243 37.56 58.1176 37.72 57.8509 38.04C57.5843 38.3333 57.4509 38.6667 57.4509 39.04C57.4509 39.8667 58.0776 40.56 59.3309 41.12C60.5843 41.68 62.0776 41.96 63.8109 41.96C65.5709 41.96 67.0776 41.4933 68.3309 40.56C69.6109 39.6 70.2509 38.1467 70.2509 36.2C70.2509 35.3733 70.1443 34.6667 69.9309 34.08C69.7443 33.4667 69.5309 33.0533 69.2909 32.84C69.0243 32.5733 68.6909 32.3067 68.2909 32.04C67.8909 31.72 66.9709 31.3733 65.5309 31C64.0643 30.6267 62.8643 30.2133 61.9309 29.76C60.9176 29.28 60.4109 28.7333 60.4109 28.12C60.4109 27.5067 60.8243 27 61.6509 26.6C62.4776 26.1733 63.2776 25.96 64.0509 25.96C64.8776 25.96 65.7309 26.1733 66.6109 26.6C67.5443 27.0267 68.2243 27.24 68.6509 27.24C68.8909 27.24 69.1176 27.1333 69.3309 26.92C69.5709 26.68 69.6909 26.3867 69.6909 26.04ZM82.8666 26.04C85.3732 26.04 86.6266 25.4933 86.6266 24.4C86.6266 23.8667 86.2666 23.52 85.5466 23.36L73.0666 23.76C72.6932 23.7867 72.3466 23.96 72.0266 24.28C71.7332 24.6 71.5866 24.92 71.5866 25.24C71.5866 25.9333 71.9999 26.28 72.8266 26.28C74.2932 26.28 75.9199 26.2133 77.7066 26.08C77.5466 27.92 77.4666 30.3067 77.4666 33.24C77.4666 35.6933 77.5066 38.24 77.5866 40.88C77.5866 41.6267 77.9332 42 78.6266 42C79.0266 42 79.3866 41.88 79.7066 41.64C80.0532 41.3733 80.2266 41.0533 80.2266 40.68C80.2266 39.72 80.2132 38.9733 80.1866 38.44L80.1466 35.44L80.2266 25.96L82.8666 26.04ZM91.0141 40.92C91.1474 39.6933 91.6007 37.6667 92.3741 34.84C93.8141 35.2133 95.6941 35.4 98.0141 35.4L99.4141 40.88C99.6007 41.6267 100.134 42 101.014 42C101.361 42 101.654 41.8933 101.894 41.68C102.134 41.4667 102.254 41.2 102.254 40.88C101.534 37.76 100.921 35.3067 100.414 33.52C99.8807 31.6267 99.1741 29.72 98.2941 27.8C97.4141 25.9067 96.8407 24.7467 96.5741 24.32C96.2541 23.8133 95.8807 23.56 95.4541 23.56C94.6274 23.56 93.8007 24.2933 92.9741 25.76C92.0674 27.3333 91.2941 29.1733 90.6541 31.28C89.1074 36.08 88.3341 39.28 88.3341 40.88C88.3341 41.5733 88.7474 41.92 89.5741 41.92C90.4274 41.92 90.9074 41.5867 91.0141 40.92ZM95.3341 27.24C96.1074 28.8667 96.7741 30.6933 97.3341 32.72C95.7341 32.72 94.3474 32.56 93.1741 32.24C93.7341 30.3733 94.4541 28.7067 95.3341 27.24ZM116.031 25.16C116.351 26.68 116.511 28.92 116.511 31.88C116.511 36.84 115.058 39.32 112.151 39.32C110.845 39.32 109.765 38.5733 108.911 37.08C108.085 35.5867 107.591 33.76 107.431 31.6C107.378 30.5333 107.351 29.6533 107.351 28.96C107.351 27.4933 107.418 26.1333 107.551 24.88C107.578 24.5333 107.485 24.2533 107.271 24.04C107.058 23.8267 106.778 23.72 106.431 23.72C106.085 23.72 105.725 23.8533 105.351 24.12C104.978 24.36 104.778 24.6533 104.751 25C104.618 26.4133 104.551 27.68 104.551 28.8C104.551 31.68 104.898 34.32 105.591 36.72C106.071 38.3467 106.871 39.64 107.991 40.6C109.138 41.5333 110.525 42 112.151 42C114.445 42 116.138 41.4 117.231 40.2C118.351 38.9733 119.005 37.0667 119.191 34.48C119.271 33.76 119.311 32.8 119.311 31.6C119.311 29.4667 119.178 27.1067 118.911 24.52C118.885 24.2267 118.738 23.9867 118.471 23.8C118.231 23.6133 117.925 23.52 117.551 23.52C117.151 23.52 116.791 23.64 116.471 23.88C116.151 24.1467 115.991 24.4533 115.991 24.8L116.031 25.16ZM124.439 40.48C124.359 38.08 124.306 36.4933 124.279 35.72C125.372 36.4667 126.612 37.44 127.999 38.64C129.359 39.84 130.212 40.6667 130.559 41.12C131.039 41.7067 131.479 42 131.879 42C131.986 42 132.159 41.96 132.399 41.88C133.039 41.6667 133.359 41.2667 133.359 40.68C133.359 39.8533 132.706 38.8 131.399 37.52C130.039 36.24 128.546 35.08 126.919 34.04C127.132 34.0133 127.786 33.6933 128.879 33.08C129.972 32.4667 130.786 31.9733 131.319 31.6C131.932 31.1467 132.479 30.56 132.959 29.84C133.466 29.12 133.719 28.48 133.719 27.92C133.719 26.6933 133.066 25.6667 131.759 24.84C130.452 23.9867 128.946 23.56 127.239 23.56C125.506 23.56 124.132 23.8 123.119 24.28C122.106 24.76 121.599 25.4267 121.599 26.28C121.599 35.1333 121.652 40.1067 121.759 41.2C121.759 41.7333 122.052 42 122.639 42C123.092 42 123.506 41.8533 123.879 41.56C124.252 41.2667 124.439 40.92 124.439 40.52V40.48ZM124.279 32.16C124.279 29.3333 124.292 27.4933 124.319 26.64C125.279 26.4 126.266 26.28 127.279 26.28C128.239 26.28 129.092 26.48 129.839 26.88C130.612 27.2533 130.999 27.7733 130.999 28.44C130.919 29.1867 129.999 30 128.239 30.88C126.452 31.7333 125.132 32.16 124.279 32.16ZM139.055 40.92C139.188 39.6933 139.641 37.6667 140.415 34.84C141.855 35.2133 143.735 35.4 146.055 35.4L147.455 40.88C147.641 41.6267 148.175 42 149.055 42C149.401 42 149.695 41.8933 149.935 41.68C150.175 41.4667 150.295 41.2 150.295 40.88C149.575 37.76 148.961 35.3067 148.455 33.52C147.921 31.6267 147.215 29.72 146.335 27.8C145.455 25.9067 144.881 24.7467 144.615 24.32C144.295 23.8133 143.921 23.56 143.495 23.56C142.668 23.56 141.841 24.2933 141.015 25.76C140.108 27.3333 139.335 29.1733 138.695 31.28C137.148 36.08 136.375 39.28 136.375 40.88C136.375 41.5733 136.788 41.92 137.615 41.92C138.468 41.92 138.948 41.5867 139.055 40.92ZM143.375 27.24C144.148 28.8667 144.815 30.6933 145.375 32.72C143.775 32.72 142.388 32.56 141.215 32.24C141.775 30.3733 142.495 28.7067 143.375 27.24ZM155.672 29.52C157.885 32.0267 160.005 35.2 162.032 39.04C162.112 39.1733 162.272 39.4667 162.512 39.92C162.752 40.3733 163.099 40.88 163.552 41.44C163.925 41.8933 164.445 42.12 165.112 42.12C166.232 42.12 166.792 41.4267 166.792 40.04L166.592 25.16C166.592 24.7067 166.445 24.3333 166.152 24.04C165.859 23.72 165.539 23.56 165.192 23.56C164.312 23.56 163.765 24.0667 163.552 25.08V25.4L163.752 28.68C163.912 31.16 164.005 34.04 164.032 37.32C162.699 34.52 160.779 31.5733 158.272 28.48C157.232 27.1467 156.432 26.2267 155.872 25.72C155.312 25.1867 154.832 24.92 154.432 24.92C153.685 24.92 153.205 25.28 152.992 26C152.859 26.56 152.792 27.3333 152.792 28.32V29.64L152.472 40.84C152.499 41.1867 152.632 41.48 152.872 41.72C153.139 41.9333 153.432 42.04 153.752 42.04C154.579 42.04 155.045 41.68 155.152 40.96C155.179 40.8533 155.192 40.5733 155.192 40.12L155.232 39.24L155.672 29.52ZM179.729 26.04C182.236 26.04 183.489 25.4933 183.489 24.4C183.489 23.8667 183.129 23.52 182.409 23.36L169.929 23.76C169.556 23.7867 169.209 23.96 168.889 24.28C168.596 24.6 168.449 24.92 168.449 25.24C168.449 25.9333 168.862 26.28 169.689 26.28C171.156 26.28 172.782 26.2133 174.569 26.08C174.409 27.92 174.329 30.3067 174.329 33.24C174.329 35.6933 174.369 38.24 174.449 40.88C174.449 41.6267 174.796 42 175.489 42C175.889 42 176.249 41.88 176.569 41.64C176.916 41.3733 177.089 41.0533 177.089 40.68C177.089 39.72 177.076 38.9733 177.049 38.44L177.009 35.44L177.089 25.96L179.729 26.04ZM192.317 33.04C192.903 33.04 193.343 33.04 193.637 33.04C193.93 33.0133 194.143 33 194.277 33C194.597 32.9467 194.89 32.7733 195.157 32.48C195.423 32.1867 195.557 31.88 195.557 31.56C195.557 30.92 195.143 30.5467 194.317 30.44C190.93 30.44 188.89 30.4267 188.197 30.4C188.17 30.2133 188.157 28.8667 188.157 26.36C189.17 26.44 190.157 26.48 191.117 26.48C193.757 26.48 195.423 26.2933 196.117 25.92C196.437 25.7067 196.597 25.3467 196.597 24.84C196.597 24.1733 196.17 23.7733 195.317 23.64H195.277L188.277 23.52H187.157C185.957 23.5467 185.357 24.0533 185.357 25.04C185.357 26.7467 185.397 28.64 185.477 30.72C185.183 31.0133 185.037 31.3333 185.037 31.68C185.037 32.08 185.21 32.3733 185.557 32.56V39.2C185.557 40.0533 185.637 40.7333 185.797 41.24C185.957 41.7467 186.37 42 187.037 42L194.877 41.92C195.917 41.92 196.437 41.36 196.437 40.24C196.437 39.6533 196.05 39.32 195.277 39.24L188.357 39.36C188.383 39.3333 188.397 38.96 188.397 38.24L188.317 33L192.317 33.04Z" fill="black"/>
<path d="M35.112 84.064C37.5867 84.064 39.72 83.9147 41.512 83.616C42.408 83.4027 42.856 82.72 42.856 81.568C42.856 80.1173 42.152 79.392 40.744 79.392L31.272 79.968C31.144 77.3227 31.08 75.0613 31.08 73.184C31.08 71.4773 31.3147 68.448 31.784 64.096C32.2107 60.7253 32.4453 58.2507 32.488 56.672C32.488 55.9893 32.232 55.456 31.72 55.072C31.208 54.688 30.5467 54.496 29.736 54.496C28.1147 54.496 27.304 55.0293 27.304 56.096L26.856 74.656C26.856 78.4533 26.984 81.248 27.24 83.04C27.368 83.68 27.9653 84 29.032 84L35.112 84.064ZM51.2275 82.272C51.4408 80.3093 52.1662 77.0667 53.4035 72.544C55.7075 73.1413 58.7155 73.44 62.4275 73.44L64.6675 82.208C64.9662 83.4027 65.8195 84 67.2275 84C67.7822 84 68.2515 83.8293 68.6355 83.488C69.0195 83.1467 69.2115 82.72 69.2115 82.208C68.0595 77.216 67.0782 73.2907 66.2675 70.432C65.4142 67.4027 64.2835 64.352 62.8755 61.28C61.4675 58.2507 60.5502 56.3947 60.1235 55.712C59.6115 54.9013 59.0142 54.496 58.3315 54.496C57.0088 54.496 55.6862 55.6693 54.3635 58.016C52.9128 60.5333 51.6755 63.4773 50.6515 66.848C48.1768 74.528 46.9395 79.648 46.9395 82.208C46.9395 83.3173 47.6008 83.872 48.9235 83.872C50.2888 83.872 51.0568 83.3387 51.2275 82.272ZM58.1395 60.384C59.3768 62.9867 60.4435 65.9093 61.3395 69.152C58.7795 69.152 56.5608 68.896 54.6835 68.384C55.5795 65.3973 56.7315 62.7307 58.1395 60.384ZM113.557 52.96C112.96 52.96 112.384 53.152 111.829 53.536C111.317 53.8773 110.976 54.2613 110.805 54.688C110.72 54.816 110.485 55.4347 110.101 56.544L109.589 58.208C107.925 62.8587 104.938 65.184 100.629 65.184C99.1357 65.184 97.7917 64.3307 96.597 62.624C95.4023 60.8747 94.7837 58.9333 94.741 56.8C94.6983 56.288 94.4423 55.8827 93.973 55.584C93.5037 55.2853 92.9277 55.136 92.245 55.136C91.6477 55.136 91.1143 55.4133 90.645 55.968C90.1757 56.48 89.941 57.056 89.941 57.696V70.304L89.749 82.144C89.749 83.3813 90.325 84 91.477 84C93.4397 84 94.4423 83.104 94.485 81.312C94.5703 79.52 94.613 75.04 94.613 67.872C95.9357 69.1947 97.8343 69.856 100.309 69.856C102.741 69.856 104.682 69.472 106.133 68.704C107.626 67.936 109.162 66.592 110.741 64.672C110.741 67.9573 110.762 70.3467 110.805 71.84C110.89 74.7413 110.933 78.0907 110.933 81.888C110.933 83.296 111.466 84 112.533 84C113.642 84 114.41 83.7227 114.837 83.168C115.349 82.5707 115.605 81.952 115.605 81.312C115.605 71.2 115.541 62.3467 115.413 54.752C115.413 53.5573 114.794 52.96 113.557 52.96ZM124.915 82.272C125.128 80.3093 125.854 77.0667 127.091 72.544C129.395 73.1413 132.403 73.44 136.115 73.44L138.355 82.208C138.654 83.4027 139.507 84 140.915 84C141.47 84 141.939 83.8293 142.323 83.488C142.707 83.1467 142.899 82.72 142.899 82.208C141.747 77.216 140.766 73.2907 139.955 70.432C139.102 67.4027 137.971 64.352 136.563 61.28C135.155 58.2507 134.238 56.3947 133.811 55.712C133.299 54.9013 132.702 54.496 132.019 54.496C130.696 54.496 129.374 55.6693 128.051 58.016C126.6 60.5333 125.363 63.4773 124.339 66.848C121.864 74.528 120.627 79.648 120.627 82.208C120.627 83.3173 121.288 83.872 122.611 83.872C123.976 83.872 124.744 83.3387 124.915 82.272ZM131.827 60.384C133.064 62.9867 134.131 65.9093 135.027 69.152C132.467 69.152 130.248 68.896 128.371 68.384C129.267 65.3973 130.419 62.7307 131.827 60.384ZM153.423 64.032C156.964 68.0427 160.356 73.12 163.599 79.264C163.727 79.4773 163.983 79.9467 164.367 80.672C164.751 81.3973 165.305 82.208 166.031 83.104C166.628 83.8293 167.46 84.192 168.527 84.192C170.319 84.192 171.215 83.0827 171.215 80.864L170.895 57.056C170.895 56.3307 170.66 55.7333 170.191 55.264C169.721 54.752 169.209 54.496 168.655 54.496C167.247 54.496 166.372 55.3067 166.031 56.928V57.44L166.351 62.688C166.607 66.656 166.756 71.264 166.799 76.512C164.665 72.032 161.593 67.3173 157.583 62.368C155.919 60.2347 154.639 58.7627 153.743 57.952C152.847 57.0987 152.079 56.672 151.439 56.672C150.244 56.672 149.476 57.248 149.135 58.4C148.921 59.296 148.815 60.5333 148.815 62.112V64.224L148.303 82.144C148.345 82.6987 148.559 83.168 148.943 83.552C149.369 83.8933 149.839 84.064 150.351 84.064C151.673 84.064 152.42 83.488 152.591 82.336C152.633 82.1653 152.655 81.7173 152.655 80.992L152.719 79.584L153.423 64.032ZM189.418 54.752C185.365 54.752 182.186 55.8827 179.882 58.144C177.621 60.4053 176.49 63.712 176.49 68.064C176.49 72.4587 177.621 76.2133 179.882 79.328C182.143 82.4 185.066 83.936 188.65 83.936C191.978 83.936 194.687 82.4 196.778 79.328C198.911 76.2133 199.978 72.5653 199.978 68.384C199.978 64.2027 199.018 60.896 197.098 58.464C195.178 55.9893 192.618 54.752 189.418 54.752ZM189.098 79.264C186.581 79.264 184.575 78.0693 183.082 75.68C181.631 73.3333 180.906 70.752 180.906 67.936C180.906 65.12 181.589 62.9653 182.954 61.472C184.319 59.936 186.239 59.168 188.714 59.168C191.146 59.168 192.853 59.9573 193.834 61.536C194.858 63.072 195.37 65.5893 195.37 69.088C195.37 72.544 194.517 75.3173 192.81 77.408C191.786 78.6453 190.549 79.264 189.098 79.264Z" fill="black"/>
</svg>
